#tb 0: 1/25
#media_type 0: video
#codec_id 0: rawvideo
#dimensions 0: 1280x720
#sar 0: 0/1
0,          0,          0,        1,  1382400, 0xea27f7bd
0,          1,          1,        1,  1382400, 0x423e555b
0,          2,          2,        1,  1382400, 0x87898ae0
0,          3,          3,        1,  1382400, 0xfee4beab
0,          4,          4,        1,  1382400, 0xe5367019
0,          5,          5,        1,  1382400, 0x3e74b3aa
0,          6,          6,        1,  1382400, 0x4d8ab61a
0,          7,          7,        1,  1382400, 0x22500e13
